<?xml version="1.0" encoding="UTF-8"?>
<svg version="1.1" xmlns="http://www.w3.org/2000/svg" width="2048" height="2048">
<path d="M0 0 C12.18778673 0.00326264 24.37557063 0.00056304 36.56335723 -0.00220345 C59.05522312 -0.00712948 81.54708677 -0.00736463 104.03895276 -0.00462674 C126.29986057 -0.00191839 148.56076727 -0.00087801 170.82167523 -0.00214718 C172.2278279 -0.00222466 173.63398058 -0.00230182 175.04013326 -0.00237865 C180.69279082 -0.0026892 186.34544839 -0.00300787 191.99810595 -0.00333842 C207.79268608 -0.00425477 223.58726621 -0.00482585 239.38184636 -0.00512455 C240.10068505 -0.0051382 240.81952374 -0.00515185 241.56014542 -0.00516591 C264.41573 -0.0055743 287.27131423 -0.00445283 310.12689869 -0.00227498 C310.86663125 -0.00220473 311.60636382 -0.00213448 312.36851252 -0.0020621 C324.37643068 -0.00091756 336.38434883 0.00030209 348.39226698 0.00152807 C396.01314016 0.00638484 443.63401053 0.0061565 491.25488369 0.00129749 C503.2643257 0.00007602 515.27376771 -0.00113514 527.28320973 -0.00227498 C528.39282666 -0.00238065 528.39282666 -0.00238065 529.5248601 -0.00248846 C552.36502662 -0.00464858 575.20519292 -0.00555818 598.04535954 -0.00512455 C599.12267465 -0.00510418 599.12267465 -0.00510418 600.22175369 -0.00508339 C615.99597462 -0.00477075 631.77019551 -0.00413679 647.54441641 -0.00321405 C653.18970835 -0.002885 658.8350003 -0.0025719 664.48029224 -0.00226334 C665.8843258 -0.00218595 667.28835936 -0.00210722 668.69239292 -0.00202714 C690.94328328 -0.00076153 713.19417241 -0.0021707 735.4450626 -0.00487729 C758.50294615 -0.00765138 781.56082727 -0.00658702 804.61871061 -0.00134599 C816.71195617 0.00131294 828.80519669 0.00244195 840.8984422 -0.00099515 C941.11762453 -0.02762476 941.11762453 -0.02762476 985.0660619 1.5383897 C985.96846334 1.5705308 986.87086477 1.6026719 987.8006117 1.63578697 C1060.14049571 4.30182617 1132.65159015 17.85120222 1198.30322354 49.13166858 C1199.17366299 49.54497425 1200.04410244 49.95827991 1200.94091885 50.38410999 C1237.94976145 68.08949186 1271.61798184 91.38532678 1301.92822354 118.97541858 C1303.47945048 120.38376936 1305.04158227 121.78022693 1306.61572354 123.16291858 C1316.39631199 131.78527945 1326.04389261 140.96202779 1334.45556729 150.94416858 C1336.00723225 152.78123492 1337.58503409 154.5843628 1339.18212979 156.38166858 C1395.14796473 219.60155296 1428.43313034 301.3007731 1441.49072354 384.06916858 C1441.60547024 384.77867664 1441.72021695 385.48818469 1441.83844082 386.219193 C1446.8214057 417.40092528 1448.92484388 448.74200986 1449.03389373 480.28658562 C1449.04949251 483.89295103 1449.07928544 487.49915476 1449.10876722 491.1054294 C1449.20404519 502.79366766 1449.25563874 514.48188177 1449.29347397 526.17043066 C1449.30313565 529.10497304 1449.31373744 532.0395106 1449.32461094 534.97404872 C1449.42670906 562.89434928 1449.44309837 590.81448479 1449.43489498 618.73494436 C1449.43158726 630.64227254 1449.43434424 642.54959793 1449.43709557 654.45692598 C1449.44199521 676.42960735 1449.44226903 698.40228641 1449.43951886 720.37496807 C1449.43679979 742.11147581 1449.43577547 763.84798241 1449.4370393 785.58449031 C1449.43711679 786.96330359 1449.43719394 788.34211686 1449.43727077 789.72093013 C1449.43758138 795.26507807 1449.43790006 800.80922601 1449.43823054 806.35337394 C1449.43914643 821.84014141 1449.43971784 837.32690888 1449.44001667 852.81367637 C1449.44003032 853.51822678 1449.44004397 854.22277719 1449.44005803 854.94867761 C1449.4404658 877.31560553 1449.43934819 899.6825331 1449.4371671 922.0494609 C1449.43709685 922.77228403 1449.4370266 923.49510716 1449.43695422 924.23983401 C1449.43580998 935.96975983 1449.43459019 947.69968565 1449.43336405 959.42961146 C1449.4285078 1005.93715035 1449.4287367 1052.44468635 1449.43359463 1098.95222522 C1449.43481631 1110.68531053 1449.43602757 1122.41839585 1449.4371671 1134.15148117 C1449.43727277 1135.23588163 1449.43727277 1135.23588163 1449.43738058 1136.34218918 C1449.43954389 1158.69719708 1449.44044971 1181.05220474 1449.44001667 1203.40721275 C1449.44000309 1204.11111772 1449.43998951 1204.81502268 1449.43997551 1205.54025811 C1449.43966274 1221.00700365 1449.43902851 1236.47374916 1449.43810617 1251.94049467 C1449.43777718 1257.47676691 1449.43746408 1263.01303914 1449.43715546 1268.54931137 C1449.43707807 1269.92595945 1449.43699934 1271.30260753 1449.43691926 1272.6792556 C1449.43565909 1294.4015025 1449.43705296 1316.12374813 1449.43976941 1337.84599486 C1449.44255659 1360.38015258 1449.44145333 1382.91430743 1449.43623811 1405.44846476 C1449.43359676 1417.24374731 1449.4324211 1429.03902473 1449.43588727 1440.83430721 C1449.44739107 1483.0364387 1449.42071354 1525.23673549 1448.92915589 1567.43650652 C1448.90119214 1569.89812515 1448.87560699 1572.35975776 1448.85065526 1574.82140858 C1448.62018234 1597.00653839 1447.88078155 1618.97019304 1444.62219326 1640.94679309 C1444.28097037 1643.28409807 1443.95969394 1645.62356027 1443.64209073 1647.96418811 C1439.51062434 1678.29445044 1433.48393418 1707.88863445 1424.30322354 1737.13166858 C1424.03042569 1738.01435413 1423.75762784 1738.89703968 1423.47656338 1739.80647327 C1416.21576105 1763.15374573 1406.1846002 1785.27192664 1395.30322354 1807.13166858 C1394.67746426 1808.39720569 1394.67746426 1808.39720569 1394.03906338 1809.68830921 C1383.76168431 1830.33561845 1371.22897724 1849.76614745 1357.30322354 1868.13166858 C1356.82933194 1868.75718616 1356.35544034 1869.38270374 1355.86718838 1870.02717639 C1349.01561476 1879.01402532 1341.76490399 1887.64713954 1334.30322354 1896.13166858 C1333.10052823 1897.50452014 1333.10052823 1897.50452014 1331.87353604 1898.90510608 C1326.03526719 1905.41486911 1319.91426752 1911.64695301 1313.75677578 1917.85334827 C1312.34654496 1919.27548153 1310.94029759 1920.70156147 1309.53418057 1922.12776233 C1303.43411625 1928.23546127 1297.04138345 1933.74479094 1290.30322354 1939.13166858 C1289.21346019 1940.05512327 1288.12882933 1940.98473048 1287.05322354 1941.92463733 C1272.79627568 1954.33871267 1257.3479338 1965.16468029 1241.30322354 1975.13166858 C1240.69623623 1975.51097522 1240.08924893 1975.89028186 1239.46386807 1976.28108264 C1235.12403771 1978.98084009 1230.7316916 1981.58020778 1226.30322354 1984.13166858 C1225.53510342 1984.57591175 1224.7669833 1985.02015491 1223.97558682 1985.47785999 C1156.67896556 2024.08633292 1081.71250277 2038.87069776 1005.30322354 2045.13166858 C1004.22968625 2045.22061389 1004.22968625 2045.22061389 1003.13446133 2045.31135608 C950.34087123 2049.65258655 897.03224128 2048.2795067 844.1090324 2048.26333698 C832.76438249 2048.26007835 821.41973565 2048.26277289 810.07508588 2048.26554062 C787.84252759 2048.27077369 765.60997219 2048.27036256 743.37741363 2048.2674617 C723.88971129 2048.26493205 704.40201 2048.26429591 684.91430752 2048.26548435 C683.61450956 2048.26556073 682.31471159 2048.26563712 680.97552581 2048.26571582 C675.69682796 2048.26602724 670.41813011 2048.26634565 665.13943225 2048.26667558 C650.38517112 2048.26758668 635.63090999 2048.26816308 620.87664883 2048.26846172 C619.86918217 2048.26848219 619.86918217 2048.26848219 618.84136265 2048.26850307 C597.47458452 2048.26891168 576.10780674 2048.26778921 554.74102871 2048.26561214 C554.04925619 2048.26554189 553.35748367 2048.26547164 552.64474835 2048.26539926 C541.41650428 2048.26425482 530.18826022 2048.26303511 518.96001616 2048.26180909 C474.57083688 2048.25696739 430.18166062 2048.25716724 385.79248135 2048.26203968 C374.62655728 2048.26326141 363.46063321 2048.26447269 352.29470913 2048.26561214 C351.26266751 2048.26571781 351.26266751 2048.26571781 350.20977656 2048.26582562 C328.90514059 2048.26799185 307.60050487 2048.26889414 286.2958688 2048.26846172 C285.28820499 2048.26844134 285.28820499 2048.26844134 284.26018434 2048.26842055 C268.82840632 2048.26809357 253.39662834 2048.26738904 237.96485035 2048.26642741 C232.68166567 2048.2661068 227.39848098 2048.26579395 222.11529629 2048.26548435 C220.81480796 2048.26540527 219.51431963 2048.26532619 218.17442256 2048.26524472 C198.75704897 2048.26411958 179.33967656 2048.26541439 159.92230313 2048.2679639 C137.7486744 2048.2708611 115.57504897 2048.27003019 93.40142064 2048.26468316 C82.13681009 2048.26205441 70.87220489 2048.2608467 59.60759442 2048.26433231 C16.47882749 2048.27656896 -26.64993556 2048.21266707 -69.77746017 2047.8594948 C-73.80282739 2047.82678819 -77.82816118 2047.79961827 -81.85360343 2047.77811459 C-171.75568175 2047.27734174 -263.56586622 2038.26387356 -345.69677646 1999.13166858 C-346.56721591 1998.71836292 -347.43765537 1998.30505725 -348.33447177 1997.87922718 C-378.81906701 1983.29510722 -407.90065759 1965.02392377 -433.69677646 1943.13166858 C-434.74045015 1942.26116048 -435.78475199 1941.39140509 -436.82958896 1940.52229358 C-448.23514136 1931.00379534 -458.98702751 1920.92826712 -469.50927646 1910.44416858 C-470.85312412 1909.1073302 -470.85312412 1909.1073302 -472.22412021 1907.74348499 C-477.25552328 1902.69987889 -482.08181457 1897.55785714 -486.69677646 1892.13166858 C-487.58557484 1891.11037852 -488.47486344 1890.08951479 -489.36474521 1889.06916858 C-551.71922252 1816.37061519 -582.72616143 1726.41492421 -593.94677646 1632.50666858 C-594.09775791 1631.25498889 -594.24873935 1630.00330921 -594.40429599 1628.71369983 C-596.84818245 1607.22292825 -598.02476931 1585.6872958 -598.3136893 1564.067719 C-598.33216328 1562.85442909 -598.35063725 1561.64113918 -598.36967104 1560.3910829 C-598.95877956 1521.16707256 -598.83972757 1481.93427524 -598.828446 1442.70700636 C-598.8251751 1430.63629731 -598.82788416 1418.56559112 -598.8306485 1406.4948822 C-598.83557062 1384.22003681 -598.8358115 1361.94519326 -598.83307178 1339.6703477 C-598.83036206 1317.62765964 -598.82932375 1295.58497271 -598.83059223 1273.5422845 C-598.83066971 1272.14915931 -598.83074686 1270.75603411 -598.8308237 1269.36290891 C-598.83113425 1263.76247038 -598.83145292 1258.16203184 -598.83178346 1252.56159331 C-598.83269974 1236.91381457 -598.83327087 1221.26603582 -598.8335696 1205.61825706 C-598.83358324 1204.90614669 -598.83359689 1204.19403633 -598.83361095 1203.46034686 C-598.83401925 1180.82411206 -598.83289836 1158.1878776 -598.83072002 1135.55164291 C-598.83064977 1134.81917431 -598.83057952 1134.08670571 -598.83050714 1133.3320411 C-598.82936264 1121.4424634 -598.82814297 1109.55288571 -598.82691697 1097.66330802 C-598.8220595 1050.50570655 -598.82228938 1003.34810793 -598.82714756 956.19050647 C-598.82836904 944.2957384 -598.82958021 932.40097032 -598.83072002 920.50620223 C-598.83079047 919.77350473 -598.83086092 919.04080722 -598.8309335 918.28590676 C-598.83309375 895.66191842 -598.8340032 873.03793032 -598.8335696 850.41394187 C-598.83355601 849.70249722 -598.83354243 848.99105256 -598.83352843 848.25804898 C-598.83321579 832.63224023 -598.83258182 817.0064315 -598.8316591 801.38062277 C-598.83133005 795.78848325 -598.83101695 790.19634374 -598.83070838 784.60420422 C-598.83063099 783.21341656 -598.83055226 781.8226289 -598.83047219 780.43184125 C-598.82920691 758.39689378 -598.83061512 736.36194755 -598.83332233 714.32700025 C-598.83609698 691.49371873 -598.83503094 668.66043945 -598.82979104 645.82715822 C-598.82713298 633.85325166 -598.82600154 621.87935019 -598.82944019 609.90544368 C-598.8722773 450.34946484 -598.8722773 450.34946484 -591.69677646 398.13166858 C-591.59471897 397.38675159 -591.49266147 396.6418346 -591.38751133 395.87434436 C-579.88627579 312.7715157 -550.19337635 233.55894791 -460.94677646 128.25666858 C-460.0593375 127.36455677 -459.17189853 126.47244495 -458.25756748 125.55329944 C-453.23079519 120.53876346 -448.10051545 115.73589746 -442.69677646 111.13166858 C-441.72095615 110.27444202 -440.74513584 109.41721546 -439.73974521 108.53401233 C-425.93977991 96.62186718 -411.09741135 85.88100563 -395.69677646 76.13166858 C-394.98569736 75.6814635 -394.27461826 75.23125843 -393.54199131 74.76741077 C-379.05410282 65.67782603 -363.96940553 57.81019935 -348.69677646 50.13166858 C-347.85324619 49.7025719 -347.00971591 49.27347522 -346.14062412 48.83137561 C-290.56342291 20.68280375 -228.96746308 9.48054086 -167.56396396 3.07698108 C-166.3988982 2.95404682 -166.3988982 2.95404682 -165.21029575 2.82862903 C-150.29278109 1.32091747 -135.38968729 0.84452936 -120.40707309 0.57725574 C-119.25873616 0.55628421 -118.11039923 0.53531267 -116.92726421 0.51370564 C-77.95666967 -0.17015393 -38.97501655 -0.0110943 0 0 Z " fill="#FD2668" transform="translate(598.6967764617875,-0.13166858162730932)"/>
<path d="M0 0 C12.18778673 0.00326264 24.37557063 0.00056304 36.56335723 -0.00220345 C59.05522312 -0.00712948 81.54708677 -0.00736463 104.03895276 -0.00462674 C126.29986057 -0.00191839 148.56076727 -0.00087801 170.82167523 -0.00214718 C172.2278279 -0.00222466 173.63398058 -0.00230182 175.04013326 -0.00237865 C180.69279082 -0.0026892 186.34544839 -0.00300787 191.99810595 -0.00333842 C207.79268608 -0.00425477 223.58726621 -0.00482585 239.38184636 -0.00512455 C240.10068505 -0.0051382 240.81952374 -0.00515185 241.56014542 -0.00516591 C264.41573 -0.0055743 287.27131423 -0.00445283 310.12689869 -0.00227498 C310.86663125 -0.00220473 311.60636382 -0.00213448 312.36851252 -0.0020621 C324.37643068 -0.00091756 336.38434883 0.00030209 348.39226698 0.00152807 C396.01314016 0.00638484 443.63401053 0.0061565 491.25488369 0.00129749 C503.2643257 0.00007602 515.27376771 -0.00113514 527.28320973 -0.00227498 C528.39282666 -0.00238065 528.39282666 -0.00238065 529.5248601 -0.00248846 C552.36502662 -0.00464858 575.20519292 -0.00555818 598.04535954 -0.00512455 C599.12267465 -0.00510418 599.12267465 -0.00510418 600.22175369 -0.00508339 C615.99597462 -0.00477075 631.77019551 -0.00413679 647.54441641 -0.00321405 C653.18970835 -0.002885 658.8350003 -0.0025719 664.48029224 -0.00226334 C665.8843258 -0.00218595 667.28835936 -0.00210722 668.69239292 -0.00202714 C690.94328328 -0.00076153 713.19417241 -0.0021707 735.4450626 -0.00487729 C758.50294615 -0.00765138 781.56082727 -0.00658702 804.61871061 -0.00134599 C816.71195617 0.00131294 828.80519669 0.00244195 840.8984422 -0.00099515 C941.11762453 -0.02762476 941.11762453 -0.02762476 985.0660619 1.5383897 C985.96846334 1.5705308 986.87086477 1.6026719 987.8006117 1.63578697 C1060.14049571 4.30182617 1132.65159015 17.85120222 1198.30322354 49.13166858 C1199.17366299 49.54497425 1200.04410244 49.95827991 1200.94091885 50.38410999 C1237.94976145 68.08949186 1271.61798184 91.38532678 1301.92822354 118.97541858 C1303.47945048 120.38376936 1305.04158227 121.78022693 1306.61572354 123.16291858 C1316.39631199 131.78527945 1326.04389261 140.96202779 1334.45556729 150.94416858 C1336.00723225 152.78123492 1337.58503409 154.5843628 1339.18212979 156.38166858 C1395.14796473 219.60155296 1428.43313034 301.3007731 1441.49072354 384.06916858 C1441.60547024 384.77867664 1441.72021695 385.48818469 1441.83844082 386.219193 C1446.8214057 417.40092528 1448.92484388 448.74200986 1449.03389373 480.28658562 C1449.04949251 483.89295103 1449.07928544 487.49915476 1449.10876722 491.1054294 C1449.20404519 502.79366766 1449.25563874 514.48188177 1449.29347397 526.17043066 C1449.30313565 529.10497304 1449.31373744 532.0395106 1449.32461094 534.97404872 C1449.42670906 562.89434928 1449.44309837 590.81448479 1449.43489498 618.73494436 C1449.43158726 630.64227254 1449.43434424 642.54959793 1449.43709557 654.45692598 C1449.44199521 676.42960735 1449.44226903 698.40228641 1449.43951886 720.37496807 C1449.43679979 742.11147581 1449.43577547 763.84798241 1449.4370393 785.58449031 C1449.43711679 786.96330359 1449.43719394 788.34211686 1449.43727077 789.72093013 C1449.43758138 795.26507807 1449.43790006 800.80922601 1449.43823054 806.35337394 C1449.43914643 821.84014141 1449.43971784 837.32690888 1449.44001667 852.81367637 C1449.44003032 853.51822678 1449.44004397 854.22277719 1449.44005803 854.94867761 C1449.4404658 877.31560553 1449.43934819 899.6825331 1449.4371671 922.0494609 C1449.43709685 922.77228403 1449.4370266 923.49510716 1449.43695422 924.23983401 C1449.43580998 935.96975983 1449.43459019 947.69968565 1449.43336405 959.42961146 C1449.4285078 1005.93715035 1449.4287367 1052.44468635 1449.43359463 1098.95222522 C1449.43481631 1110.68531053 1449.43602757 1122.41839585 1449.4371671 1134.15148117 C1449.43727277 1135.23588163 1449.43727277 1135.23588163 1449.43738058 1136.34218918 C1449.43954389 1158.69719708 1449.44044971 1181.05220474 1449.44001667 1203.40721275 C1449.44000309 1204.11111772 1449.43998951 1204.81502268 1449.43997551 1205.54025811 C1449.43966274 1221.00700365 1449.43902851 1236.47374916 1449.43810617 1251.94049467 C1449.43777718 1257.47676691 1449.43746408 1263.01303914 1449.43715546 1268.54931137 C1449.43707807 1269.92595945 1449.43699934 1271.30260753 1449.43691926 1272.6792556 C1449.43565909 1294.4015025 1449.43705296 1316.12374813 1449.43976941 1337.84599486 C1449.44255659 1360.38015258 1449.44145333 1382.91430743 1449.43623811 1405.44846476 C1449.43359676 1417.24374731 1449.4324211 1429.03902473 1449.43588727 1440.83430721 C1449.44739107 1483.0364387 1449.42071354 1525.23673549 1448.92915589 1567.43650652 C1448.90119214 1569.89812515 1448.87560699 1572.35975776 1448.85065526 1574.82140858 C1448.62018234 1597.00653839 1447.88078155 1618.97019304 1444.62219326 1640.94679309 C1444.28097037 1643.28409807 1443.95969394 1645.62356027 1443.64209073 1647.96418811 C1439.51062434 1678.29445044 1433.48393418 1707.88863445 1424.30322354 1737.13166858 C1424.03042569 1738.01435413 1423.75762784 1738.89703968 1423.47656338 1739.80647327 C1416.21576105 1763.15374573 1406.1846002 1785.27192664 1395.30322354 1807.13166858 C1394.67746426 1808.39720569 1394.67746426 1808.39720569 1394.03906338 1809.68830921 C1383.76168431 1830.33561845 1371.22897724 1849.76614745 1357.30322354 1868.13166858 C1356.82933194 1868.75718616 1356.35544034 1869.38270374 1355.86718838 1870.02717639 C1349.01561476 1879.01402532 1341.76490399 1887.64713954 1334.30322354 1896.13166858 C1333.10052823 1897.50452014 1333.10052823 1897.50452014 1331.87353604 1898.90510608 C1326.03526719 1905.41486911 1319.91426752 1911.64695301 1313.75677578 1917.85334827 C1312.34654496 1919.27548153 1310.94029759 1920.70156147 1309.53418057 1922.12776233 C1303.43411625 1928.23546127 1297.04138345 1933.74479094 1290.30322354 1939.13166858 C1289.21346019 1940.05512327 1288.12882933 1940.98473048 1287.05322354 1941.92463733 C1272.79627568 1954.33871267 1257.3479338 1965.16468029 1241.30322354 1975.13166858 C1240.69623623 1975.51097522 1240.08924893 1975.89028186 1239.46386807 1976.28108264 C1235.12403771 1978.98084009 1230.7316916 1981.58020778 1226.30322354 1984.13166858 C1225.53510342 1984.57591175 1224.7669833 1985.02015491 1223.97558682 1985.47785999 C1156.67896556 2024.08633292 1081.71250277 2038.87069776 1005.30322354 2045.13166858 C1004.22968625 2045.22061389 1004.22968625 2045.22061389 1003.13446133 2045.31135608 C950.34087123 2049.65258655 897.03224128 2048.2795067 844.1090324 2048.26333698 C832.76438249 2048.26007835 821.41973565 2048.26277289 810.07508588 2048.26554062 C787.84252759 2048.27077369 765.60997219 2048.27036256 743.37741363 2048.2674617 C723.88971129 2048.26493205 704.40201 2048.26429591 684.91430752 2048.26548435 C683.61450956 2048.26556073 682.31471159 2048.26563712 680.97552581 2048.26571582 C675.69682796 2048.26602724 670.41813011 2048.26634565 665.13943225 2048.26667558 C650.38517112 2048.26758668 635.63090999 2048.26816308 620.87664883 2048.26846172 C619.86918217 2048.26848219 619.86918217 2048.26848219 618.84136265 2048.26850307 C597.47458452 2048.26891168 576.10780674 2048.26778921 554.74102871 2048.26561214 C554.04925619 2048.26554189 553.35748367 2048.26547164 552.64474835 2048.26539926 C541.41650428 2048.26425482 530.18826022 2048.26303511 518.96001616 2048.26180909 C474.57083688 2048.25696739 430.18166062 2048.25716724 385.79248135 2048.26203968 C374.62655728 2048.26326141 363.46063321 2048.26447269 352.29470913 2048.26561214 C351.26266751 2048.26571781 351.26266751 2048.26571781 350.20977656 2048.26582562 C328.90514059 2048.26799185 307.60050487 2048.26889414 286.2958688 2048.26846172 C285.28820499 2048.26844134 285.28820499 2048.26844134 284.26018434 2048.26842055 C268.82840632 2048.26809357 253.39662834 2048.26738904 237.96485035 2048.26642741 C232.68166567 2048.2661068 227.39848098 2048.26579395 222.11529629 2048.26548435 C220.81480796 2048.26540527 219.51431963 2048.26532619 218.17442256 2048.26524472 C198.75704897 2048.26411958 179.33967656 2048.26541439 159.92230313 2048.2679639 C137.7486744 2048.2708611 115.57504897 2048.27003019 93.40142064 2048.26468316 C82.13681009 2048.26205441 70.87220489 2048.2608467 59.60759442 2048.26433231 C16.47882749 2048.27656896 -26.64993556 2048.21266707 -69.77746017 2047.8594948 C-73.80282739 2047.82678819 -77.82816118 2047.79961827 -81.85360343 2047.77811459 C-171.75568175 2047.27734174 -263.56586622 2038.26387356 -345.69677646 1999.13166858 C-346.56721591 1998.71836292 -347.43765537 1998.30505725 -348.33447177 1997.87922718 C-378.81906701 1983.29510722 -407.90065759 1965.02392377 -433.69677646 1943.13166858 C-434.74045015 1942.26116048 -435.78475199 1941.39140509 -436.82958896 1940.52229358 C-448.23514136 1931.00379534 -458.98702751 1920.92826712 -469.50927646 1910.44416858 C-470.85312412 1909.1073302 -470.85312412 1909.1073302 -472.22412021 1907.74348499 C-477.25552328 1902.69987889 -482.08181457 1897.55785714 -486.69677646 1892.13166858 C-487.58557484 1891.11037852 -488.47486344 1890.08951479 -489.36474521 1889.06916858 C-551.71922252 1816.37061519 -582.72616143 1726.41492421 -593.94677646 1632.50666858 C-594.09775791 1631.25498889 -594.24873935 1630.00330921 -594.40429599 1628.71369983 C-596.84818245 1607.22292825 -598.02476931 1585.6872958 -598.3136893 1564.067719 C-598.33216328 1562.85442909 -598.35063725 1561.64113918 -598.36967104 1560.3910829 C-598.95877956 1521.16707256 -598.83972757 1481.93427524 -598.828446 1442.70700636 C-598.8251751 1430.63629731 -598.82788416 1418.56559112 -598.8306485 1406.4948822 C-598.83557062 1384.22003681 -598.8358115 1361.94519326 -598.83307178 1339.6703477 C-598.83036206 1317.62765964 -598.82932375 1295.58497271 -598.83059223 1273.5422845 C-598.83066971 1272.14915931 -598.83074686 1270.75603411 -598.8308237 1269.36290891 C-598.83113425 1263.76247038 -598.83145292 1258.16203184 -598.83178346 1252.56159331 C-598.83269974 1236.91381457 -598.83327087 1221.26603582 -598.8335696 1205.61825706 C-598.83358324 1204.90614669 -598.83359689 1204.19403633 -598.83361095 1203.46034686 C-598.83401925 1180.82411206 -598.83289836 1158.1878776 -598.83072002 1135.55164291 C-598.83064977 1134.81917431 -598.83057952 1134.08670571 -598.83050714 1133.3320411 C-598.82936264 1121.4424634 -598.82814297 1109.55288571 -598.82691697 1097.66330802 C-598.8220595 1050.50570655 -598.82228938 1003.34810793 -598.82714756 956.19050647 C-598.82836904 944.2957384 -598.82958021 932.40097032 -598.83072002 920.50620223 C-598.83079047 919.77350473 -598.83086092 919.04080722 -598.8309335 918.28590676 C-598.83309375 895.66191842 -598.8340032 873.03793032 -598.8335696 850.41394187 C-598.83355601 849.70249722 -598.83354243 848.99105256 -598.83352843 848.25804898 C-598.83321579 832.63224023 -598.83258182 817.0064315 -598.8316591 801.38062277 C-598.83133005 795.78848325 -598.83101695 790.19634374 -598.83070838 784.60420422 C-598.83063099 783.21341656 -598.83055226 781.8226289 -598.83047219 780.43184125 C-598.82920691 758.39689378 -598.83061512 736.36194755 -598.83332233 714.32700025 C-598.83609698 691.49371873 -598.83503094 668.66043945 -598.82979104 645.82715822 C-598.82713298 633.85325166 -598.82600154 621.87935019 -598.82944019 609.90544368 C-598.8722773 450.34946484 -598.8722773 450.34946484 -591.69677646 398.13166858 C-591.59471897 397.38675159 -591.49266147 396.6418346 -591.38751133 395.87434436 C-579.88627579 312.7715157 -550.19337635 233.55894791 -460.94677646 128.25666858 C-460.0593375 127.36455677 -459.17189853 126.47244495 -458.25756748 125.55329944 C-453.23079519 120.53876346 -448.10051545 115.73589746 -442.69677646 111.13166858 C-441.72095615 110.27444202 -440.74513584 109.41721546 -439.73974521 108.53401233 C-425.93977991 96.62186718 -411.09741135 85.88100563 -395.69677646 76.13166858 C-394.98569736 75.6814635 -394.27461826 75.23125843 -393.54199131 74.76741077 C-379.05410282 65.67782603 -363.96940553 57.81019935 -348.69677646 50.13166858 C-347.85324619 49.7025719 -347.00971591 49.27347522 -346.14062412 48.83137561 C-290.56342291 20.68280375 -228.96746308 9.48054086 -167.56396396 3.07698108 C-166.3988982 2.95404682 -166.3988982 2.95404682 -165.21029575 2.82862903 C-150.29278109 1.32091747 -135.38968729 0.84452936 -120.40707309 0.57725574 C-119.25873616 0.55628421 -118.11039923 0.53531267 -116.92726421 0.51370564 C-77.95666967 -0.17015393 -38.97501655 -0.0110943 0 0 Z M204.75618319 263.89911814 C200.32911329 264.1972731 195.9105277 264.33279531 191.47509854 264.41291858 C190.63513333 264.43132801 189.79516812 264.44973743 188.92974942 264.46870471 C186.30429452 264.52609104 183.67878495 264.57940159 181.05322354 264.63166858 C169.89836454 264.85556089 158.76594856 265.172541 147.62431424 265.76974536 C139.95436199 266.17227811 132.28645744 266.35751537 124.60833828 266.52009632 C112.30662575 266.78927893 100.13420664 267.30285364 87.89697354 268.65901233 C82.24336009 269.27950126 76.57550183 269.55179814 70.89453213 269.78987171 C67.80485767 269.93073614 65.25605117 270.1473927 62.30322354 271.13166858 C60.65640472 271.36771261 59.00425292 271.56746093 57.35009854 271.74494983 C56.34914151 271.85661487 55.34818448 271.96827991 54.31689541 272.08332874 C52.70137784 272.26194446 52.70137784 272.26194446 51.05322354 272.44416858 C41.30137416 273.56032703 31.65721439 274.99053432 22.00537198 276.77351428 C17.84455596 277.53835898 13.73477468 278.22121357 9.52197354 278.62385608 C5.8840651 278.99005614 2.76003897 279.91328281 -0.69677646 281.13166858 C-2.94181109 281.53533244 -5.19266486 281.90723207 -7.44677646 282.25666858 C-18.50950707 284.14852102 -29.09668283 287.83042869 -39.77050693 291.21858264 C-43.45700369 292.36888282 -47.16169149 293.41697401 -50.88427646 294.44416858 C-55.34760153 295.69913773 -59.46831936 297.20964263 -63.69677646 299.13166858 C-65.58892473 299.87034508 -67.4853627 300.59806209 -69.38427646 301.31916858 C-71.82236515 302.25517044 -74.25986934 303.19260193 -76.69677646 304.13166858 C-77.45248935 304.42202991 -78.20820224 304.71239124 -78.98681552 305.01155139 C-89.91525221 309.22962134 -100.51556388 313.76996384 -110.89697177 319.20295764 C-112.7647921 320.16676509 -114.6511198 321.08599511 -116.54052646 322.00666858 C-121.32028483 324.3907779 -125.87769307 327.11988424 -130.44677646 329.88166858 C-131.32930088 330.41389026 -132.21182529 330.94611194 -133.12109287 331.49446155 C-139.77682491 335.52990356 -146.30551965 339.68595964 -152.69677646 344.13166858 C-154.31712802 345.24735218 -154.31712802 345.24735218 -155.97021396 346.38557483 C-165.24899738 352.84518746 -174.04112345 359.86362411 -182.69677646 367.13166858 C-183.19019535 367.5425069 -183.68361423 367.95334522 -184.1919852 368.37663318 C-192.77904865 375.54033974 -200.91642792 383.03204899 -208.79418857 390.9683385 C-210.51926123 392.70421589 -212.25489637 394.42901948 -213.99169834 396.15315296 C-220.68687556 402.84042883 -226.80960204 409.71565727 -232.69677646 417.13166858 C-233.64293511 418.24551621 -234.59604299 419.35355113 -235.56005771 420.45198108 C-253.35415229 440.82863165 -267.13786139 464.27434719 -279.69677646 488.13166858 C-280.08349521 488.85982776 -280.47021396 489.58798694 -280.86865146 490.33821155 C-286.65069838 501.2764407 -291.27432348 512.58533937 -295.69677646 524.13166858 C-295.96731845 524.83291858 -296.23786045 525.53416858 -296.51660068 526.25666858 C-298.0296544 530.18657855 -299.50231153 534.12944108 -300.94482334 538.08577014 C-301.4518982 539.46540889 -301.96639822 540.84233828 -302.48779209 542.21662952 C-314.7391697 574.51172873 -320.74741946 608.07344628 -325.69677646 642.13166858 C-325.87273349 643.34019489 -325.87273349 643.34019489 -326.05224521 644.57313587 C-331.3006697 681.0377756 -332.32092515 718.05306339 -333.82177646 754.81916858 C-333.86038791 755.7407677 -333.89899936 756.66236682 -333.93878086 757.61189319 C-334.24770084 765.11688114 -334.48017225 772.62351591 -334.69677646 780.13166858 C-334.7174135 780.84165854 -334.73805054 781.5516485 -334.75931294 782.28315331 C-335.92599344 823.04561235 -335.84589181 863.81137168 -335.83207632 904.5862847 C-335.82976483 911.59920594 -335.82951815 918.61212475 -335.83059223 925.62504627 C-335.83074546 926.6371598 -335.83089869 927.64927333 -335.83105657 928.69205697 C-335.83137642 930.75057611 -335.83170063 932.80909526 -335.83202916 934.8676144 C-335.83485719 954.01538335 -335.83164008 973.16314745 -335.82622879 992.3109156 C-335.82176872 1008.59410522 -335.82253539 1024.87728769 -335.82714756 1041.16047718 C-335.83255078 1060.24437881 -335.83457709 1079.32827623 -335.83153529 1098.41217853 C-335.83121687 1100.46404061 -335.8309025 1102.51590269 -335.83059223 1104.56776477 C-335.83043795 1105.57630291 -335.83028368 1106.58484106 -335.83012473 1107.62394096 C-335.82927621 1114.59085303 -335.83070583 1121.55776231 -335.83307178 1128.52467395 C-336.84767509 1270.41962665 -336.84767509 1270.41962665 -315.69677646 1459.13166858 C-315.43058506 1460.21464221 -315.16439365 1461.29761585 -314.89013584 1462.41340686 C-306.44617887 1496.60380823 -295.01085159 1529.86616283 -278.71533115 1561.15071155 C-277.65322239 1563.21637562 -276.6309227 1565.29886897 -275.61083896 1567.38557483 C-265.97682487 1586.75886977 -253.47955786 1605.45591429 -239.69677646 1622.13166858 C-239.03887119 1622.9295177 -239.03887119 1622.9295177 -238.3676749 1623.74348499 C-232.3299862 1631.0406077 -226.08492167 1638.13923936 -219.69677646 1645.13166858 C-218.80072715 1646.12105636 -217.9049037 1647.11064871 -217.00927646 1648.10041858 C-204.55894714 1663.50102432 -204.55894714 1663.50102432 -188.69677646 1674.13166858 C-188.69677646 1674.79166858 -188.69677646 1675.45166858 -188.69677646 1676.13166858 C-185.81669649 1678.84681005 -182.65024383 1681.22745277 -179.54101474 1683.67463733 C-177.57091646 1685.23110365 -175.61659151 1686.8062541 -173.66162021 1688.38166858 C-165.65135782 1694.78047911 -157.4778742 1700.78554422 -148.88427646 1706.38166858 C-148.04259922 1706.93048694 -147.20092197 1707.4793053 -146.33373935 1708.04475452 C-142.52304696 1710.48341208 -138.94617482 1712.53344559 -134.69677646 1714.13166858 C-134.69677646 1714.79166858 -134.69677646 1715.45166858 -134.69677646 1716.13166858 C-132.38677646 1716.79166858 -130.07677646 1717.45166858 -127.69677646 1718.13166858 C-127.69677646 1718.79166858 -127.69677646 1719.45166858 -127.69677646 1720.13166858 C-123.24177646 1721.61666858 -123.24177646 1721.61666858 -118.69677646 1723.13166858 C-118.69677646 1723.79166858 -118.69677646 1724.45166858 -118.69677646 1725.13166858 C-107.1187279 1731.1228761 -107.1187279 1731.1228761 -95.10302646 1736.14729358 C-92.96832684 1737.02057979 -90.97915375 1737.99799619 -88.93115146 1739.05354358 C-84.87253707 1741.10741409 -80.74819618 1742.66850927 -76.44677646 1744.13166858 C-75.71023838 1744.38730579 -74.97370029 1744.642943 -74.21484287 1744.90632678 C-68.9653323 1746.7214447 -63.69623913 1748.47641591 -58.40771396 1750.17463733 C-55.69677646 1751.13166858 -55.69677646 1751.13166858 -52.42333896 1752.58088733 C-48.29025685 1754.38088677 -44.04060267 1755.57596414 -39.69677646 1756.75666858 C-38.92849521 1756.97323108 -38.16021396 1757.18979358 -37.36865146 1757.41291858 C-32.81880448 1758.66644785 -28.38310884 1759.57080433 -23.69677646 1760.13166858 C-23.69677646 1760.79166858 -23.69677646 1761.45166858 -23.69677646 1762.13166858 C-23.0961539 1762.24760364 -22.49553134 1762.3635387 -21.8767081 1762.48298694 C-19.17010788 1763.00773329 -16.46469598 1763.53837005 -13.75927646 1764.06916858 C-12.81374912 1764.25157093 -11.86822177 1764.43397327 -10.89404209 1764.62190296 C-9.99492099 1764.79914905 -9.0957999 1764.97639514 -8.16943271 1765.15901233 C-6.920452 1765.40252429 -6.920452 1765.40252429 -5.64623935 1765.65095569 C-3.69677646 1766.13166858 -3.69677646 1766.13166858 -2.69677646 1767.13166858 C-0.75482586 1767.52668975 1.19849475 1767.86600353 3.15478604 1768.18244983 C4.38592129 1768.38434925 5.61705655 1768.58624866 6.88549893 1768.79426624 C8.23302639 1769.01119505 9.58060256 1769.22782151 10.92822354 1769.44416858 C13.71108226 1769.89411666 16.49358822 1770.34619594 19.27587979 1770.79963733 C20.318895 1770.96918933 20.318895 1770.96918933 21.38298123 1771.14216663 C25.30526129 1771.78526882 29.21183063 1772.47861954 33.11181729 1773.24494983 C46.96763876 1775.93800283 60.81612422 1777.16169836 74.87768643 1778.18098499 C75.66127026 1778.2381821 76.44485409 1778.29537921 77.25218289 1778.35430957 C78.72879526 1778.46068423 80.20564732 1778.56380177 81.6827554 1778.66305591 C84.40805952 1778.85609083 87.05968092 1779.08127235 89.73764126 1779.63542224 C92.18658882 1780.10910858 94.46212749 1780.31021009 96.95166104 1780.39704944 C97.8578619 1780.43063556 98.76406277 1780.46422168 99.69772427 1780.49882556 C100.68128903 1780.5310622 101.66485379 1780.56329883 102.67822354 1780.59651233 C104.25037121 1780.65284336 104.25037121 1780.65284336 105.85427945 1780.71031238 C109.33713194 1780.8339709 112.82015953 1780.9516303 116.30322354 1781.06916858 C118.75228954 1781.15473865 121.20134538 1781.24060002 123.65039151 1781.32673694 C131.5344328 1781.60212076 139.41877471 1781.86826591 147.30322354 1782.13166858 C147.97150677 1782.15401065 148.63979001 1782.17635272 149.32832425 1782.19937183 C162.89506624 1782.65268342 176.46200289 1783.09995802 190.02929776 1783.53643848 C190.62488773 1783.55577153 191.2204777 1783.57510457 191.83411585 1783.59502347 C193.59293416 1783.65173208 195.35178278 1783.70750021 197.11064194 1783.76292725 C202.9862836 1783.95045033 208.86076556 1784.14873275 214.73441308 1784.39126445 C233.75519145 1785.15627157 252.74620967 1785.276874 271.77956324 1785.26239325 C276.27975083 1785.26008933 280.77993489 1785.26364337 285.28012173 1785.26637317 C294.06005422 1785.27077995 302.83997808 1785.26987658 311.61991089 1785.26696053 C318.78076697 1785.26468295 325.94162066 1785.26440407 333.102477 1785.26548435 C334.64352958 1785.2657142 334.64352958 1785.2657142 336.21571454 1785.26594869 C338.30444103 1785.2662685 340.39316751 1785.26659271 342.481894 1785.26692128 C361.99853822 1785.26976205 381.51517772 1785.26651289 401.03182117 1785.26112091 C417.65508723 1785.2566696 434.27834628 1785.2574177 450.90161221 1785.26203968 C470.32262178 1785.26743722 489.74362721 1785.26947145 509.16463743 1785.26642741 C511.25182745 1785.26610896 513.33901746 1785.26579459 515.42620747 1785.26548435 C516.45240537 1785.26533007 517.47860326 1785.2651758 518.53589807 1785.26501685 C525.64819652 1785.26416592 532.76049223 1785.26560314 539.87279026 1785.2679639 C617.93442757 1785.51418724 617.93442757 1785.51418724 695.92822354 1782.69416858 C699.58293991 1782.4897836 703.23781265 1782.28836479 706.89270108 1782.0870824 C709.29762839 1781.95441075 711.70249699 1781.82066992 714.10730069 1781.68577625 C721.48598949 1781.27439127 728.86511126 1780.91119278 736.24853604 1780.59651233 C826.72078316 1776.7322106 920.57150719 1759.64461781 1013.30322354 1697.13166858 C1013.84640225 1696.72738636 1014.38958096 1696.32310413 1014.94921963 1695.90657093 C1031.69800781 1683.37849723 1047.18859572 1669.43397563 1061.96801846 1654.65217639 C1063.4955977 1653.12680145 1065.03105936 1651.60966186 1066.56689541 1650.09260608 C1072.9307062 1643.76441245 1078.71568956 1637.16696412 1084.30322354 1630.13166858 C1085.16649867 1629.1040235 1086.03488847 1628.08060631 1086.91259854 1627.06526233 C1123.01464875 1584.96816364 1145.3931113 1533.7581055 1161.30322354 1481.13166858 C1161.70468594 1479.82262561 1161.70468594 1479.82262561 1162.11425869 1478.48713733 C1169.35850736 1454.59350398 1173.96744283 1429.41226033 1176.99267666 1404.64192249 C1177.32031357 1401.99352418 1177.67888414 1399.35024436 1178.03759854 1396.70588733 C1183.24363937 1356.80732268 1184.06147939 1316.30256169 1185.30322354 1276.13166858 C1185.32454131 1275.44264064 1185.34585908 1274.7536127 1185.36782284 1274.04370512 C1186.9135424 1223.9112533 1187.60232161 1173.82184906 1187.54206166 1123.66655537 C1187.53124947 1114.40489111 1187.53174121 1105.14323444 1187.5322183 1095.88156508 C1187.5327111 1079.3072091 1187.52377096 1062.7328729 1187.50903409 1046.15852405 C1187.49491679 1030.27147612 1187.48786601 1014.38444552 1187.48852627 998.49739124 C1187.48856623 997.51501772 1187.48860618 996.53264419 1187.48864735 995.52050178 C1187.48868771 994.53939495 1187.48872806 993.55828813 1187.48876964 992.54745079 C1187.48946786 974.14820113 1187.48352828 955.74895845 1187.47461642 937.34971109 C1187.47207706 931.86340192 1187.47068348 926.37709401 1187.47028532 920.89078428 C1187.46767715 886.24468957 1187.43676217 851.60371531 1186.8354501 816.96199085 C1186.81474686 815.76833959 1186.79404361 814.57468832 1186.77271299 813.34486581 C1186.43071499 794.20957891 1185.84120632 775.0915412 1184.96388714 755.97354938 C1184.82640451 752.95624015 1184.69416142 749.9387072 1184.56162255 746.9211774 C1184.23816656 739.56068361 1183.90468696 732.20069546 1183.56440728 724.84096195 C1183.33754027 719.9195446 1183.12426288 714.99764617 1182.91536038 710.07543994 C1180.6836263 657.94141507 1173.92241133 606.05981283 1158.30322354 556.13166858 C1158.00722256 555.17260608 1157.71122159 554.21354358 1157.40625088 553.22541858 C1139.87681668 496.85848593 1111.04609461 446.64036161 1071.30322354 403.13166858 C1070.4279501 402.16358264 1069.55267666 401.19549671 1068.65087979 400.19807483 C1060.93675384 391.68762567 1053.07860462 383.35172154 1044.33056729 375.88557483 C1042.92480777 374.66941679 1041.54327621 373.42490357 1040.18212979 372.15901233 C1033.03396876 365.51712915 1025.36994523 359.64544911 1017.55761807 353.81672718 C1016.08826958 352.71845522 1014.62288227 351.61485746 1013.16211026 350.50520374 C1000.51386561 340.90282711 987.14378024 332.8935339 973.30322354 325.13166858 C972.60132901 324.73109241 971.89943448 324.33051624 971.17627041 323.91780139 C951.60605393 312.75392922 930.37655295 304.7552626 909.21923916 297.18489124 C906.77239656 296.30112709 904.34019249 295.39077663 901.91259854 294.45588733 C845.20470732 272.9034879 780.60740179 268.32683671 720.56298916 266.42170764 C716.58604014 266.29498346 712.66234389 266.07904759 708.70581715 265.65142585 C700.18443459 264.86467891 691.63545158 264.78447663 683.08438199 264.60461475 C681.16192041 264.56187445 679.23946175 264.51900271 677.3170058 264.47600998 C671.03472634 264.33778584 664.75225114 264.21012757 658.46972744 264.08357288 C657.38576326 264.06141176 656.30179908 264.03925065 655.1849875 264.01641798 C610.04210415 263.09487581 564.91444724 262.84480557 519.76342387 262.8928304 C509.30459379 262.90364385 498.84577043 262.90315114 488.38693583 262.90267382 C469.73955757 262.90218248 451.09219701 262.91109322 432.4448251 262.92585803 C414.45361091 262.94009516 396.46241217 262.94702101 378.47119229 262.94636585 C376.78943138 262.94630591 376.78943138 262.94630591 375.07369551 262.94624477 C373.95418752 262.94620441 372.83467952 262.94616406 371.68124704 262.94612248 C350.93836129 262.94543232 330.19548188 262.9513026 309.45259819 262.9602757 C302.19184223 262.96327133 294.93108744 262.96435255 287.67033093 262.964808 C278.86662981 262.96549134 270.06293955 262.96997674 261.25924304 262.97914081 C256.78478722 262.98373134 252.31034522 262.98681422 247.83588688 262.9855466 C243.733476 262.98444058 239.63109559 262.9880356 235.52869106 262.99519513 C234.05624553 262.99698678 232.58379682 262.99716035 231.11135122 262.99542784 C222.29054242 262.98620643 213.551388 263.28475428 204.75618319 263.89911814 Z " fill="#F13278" transform="translate(598.6967764617875,-0.13166858162730932)"/>
<path d="M0 0 C1.5402633 -0.00187417 3.08052612 -0.00417725 4.62078822 -0.00686532 C8.80785302 -0.01292002 12.99489766 -0.01285715 17.18196583 -0.01167095 C21.72075512 -0.01146519 26.25953824 -0.01700394 30.79832458 -0.02172852 C39.69506958 -0.03001298 48.59180795 -0.03278282 57.48855649 -0.03334089 C64.77232621 -0.03381938 72.05609378 -0.03589066 79.33986282 -0.03904152 C100.16452212 -0.04786057 120.98917628 -0.0524617 141.81383745 -0.05171105 C143.49559836 -0.05165111 143.49559836 -0.05165111 145.21133423 -0.05158997 C146.3339477 -0.05154909 147.45656117 -0.0515082 148.61319323 -0.05146609 C166.57788886 -0.05106456 184.54256303 -0.06050406 202.5072525 -0.07472833 C221.12405803 -0.08934673 239.74085333 -0.0959842 258.3576647 -0.09513456 C268.73846635 -0.09480998 279.11924563 -0.09727109 289.50004196 -0.10831261 C334.74809868 -0.15410701 379.9702861 0.16071594 425.20986938 1.08561707 C426.2861829 1.10729825 427.36249642 1.12897943 428.4714255 1.15131761 C434.64130226 1.2758101 440.81103042 1.40545982 446.98062107 1.54343309 C448.84739614 1.58493536 450.71419527 1.62537215 452.58101872 1.66463862 C461.77829744 1.86049912 470.89000667 2.14852978 480.04336548 3.13371277 C481.96997826 3.25478082 483.89761789 3.36213366 485.82632446 3.44328308 C486.82625931 3.4873378 487.82619415 3.53139252 488.85643005 3.57678223 C489.90682968 3.62135056 490.95722931 3.66591888 492.03945923 3.71183777 C528.73913236 5.38178002 565.48915371 7.51775083 601.60586548 14.65861511 C604.14317736 15.15316729 606.68525276 15.60973744 609.23086548 16.05949402 C665.63150961 26.14135201 724.20655314 47.72925596 771.04336548 81.13371277 C771.79069946 81.66609558 772.53803345 82.19847839 773.30801392 82.74699402 C787.30188712 92.77414457 800.3350641 103.52535711 813.04336548 115.13371277 C814.01145142 116.00898621 814.97953735 116.88425964 815.97695923 117.78605652 C824.484368 125.49742656 832.81267401 133.35473348 840.28164673 142.09465027 C842.23942287 144.36063507 844.26565496 146.55514771 846.29336548 148.75871277 C851.87916904 154.95990146 856.98573103 161.50051868 862.04336548 168.13371277 C862.49469849 168.72281433 862.94603149 169.31191589 863.41104126 169.91886902 C875.44800862 185.70790007 885.76717694 202.5944593 895.04336548 220.13371277 C895.4800354 220.95645691 895.91670532 221.77920105 896.36660767 222.62687683 C909.2479952 247.10058576 918.8307444 272.77869972 927.04336548 299.13371277 C927.48156616 300.53605164 927.48156616 300.53605164 927.92861938 301.96672058 C943.40089404 352.48336283 947.76572751 405.6468146 950.0453186 458.13920593 C950.25058771 462.82190735 950.46596743 467.50414355 950.68008423 472.18644714 C951.10655584 481.56718312 951.52548318 490.94817415 951.92369628 500.33015424 C952.00260862 502.17887866 952.0823993 504.02756583 952.16312814 505.87621182 C952.86506904 522.00386415 953.329092 538.125001 953.59536743 554.26554871 C953.61628216 555.50392848 953.6371969 556.74230826 953.65874541 558.0182147 C954.22103158 592.20473228 954.20814511 626.39351202 954.21062255 660.58375645 C954.2111272 666.10999946 954.21344308 671.63624088 954.21611977 677.16248322 C954.22486806 695.61583866 954.22954831 714.06918843 954.22878929 732.52254596 C954.22874934 733.50491949 954.22870938 734.48729301 954.22866821 735.49943542 C954.22860689 736.97491974 954.22860689 736.97491974 954.22854433 738.48021182 C954.22813934 754.35985596 954.2376874 770.23947622 954.25180658 786.11911348 C954.26639182 802.66135596 954.27306493 819.20358698 954.2722128 835.74583602 C954.27188834 844.93770227 954.27434713 854.12954326 954.28539085 863.3214035 C954.34255219 913.28851626 953.58835843 963.19006904 952.04336548 1013.13371277 C952.02201946 1013.82447021 952.00067345 1014.51522766 951.97868058 1015.22691715 C950.7612316 1054.52411743 949.35148979 1093.84499526 945.04336548 1132.94621277 C944.96563904 1133.65803711 944.8879126 1134.36986145 944.80783081 1135.10325623 C943.72530568 1144.85915252 942.20154202 1154.49141513 940.41183472 1164.13978577 C940.06822683 1165.99917853 939.73483879 1167.86045183 939.4022522 1169.72184753 C927.9985588 1233.06913717 904.84026084 1296.34112534 866.04336548 1348.13371277 C865.64053345 1348.67399109 865.23770142 1349.21426941 864.82266235 1349.7709198 C852.29409356 1366.52366136 838.34814333 1382.01661454 823.56387329 1396.79850769 C822.03849835 1398.32608693 820.52135876 1399.86154859 819.00430298 1401.39738464 C812.67610934 1407.76119543 806.07866102 1413.54617879 799.04336548 1419.13371277 C798.0157204 1419.9969879 796.99230321 1420.8653777 795.97695923 1421.74308777 C729.37729542 1478.85829241 639.58572472 1505.64482997 504.66836548 1517.63371277 C502.04261912 1517.76217174 499.41688686 1517.89091917 496.79116821 1518.01994324 C492.85613143 1518.2130722 488.92107461 1518.40569439 484.98591614 1518.59632874 C478.58456491 1518.90695619 472.18400139 1519.22597705 465.78479004 1519.57810974 C447.56645838 1520.57565807 429.3567557 1521.32096474 411.11392212 1521.67790222 C410.03610352 1521.69912915 408.95828491 1521.72035608 407.84780514 1521.74222624 C372.52000383 1522.41129919 337.18266598 1522.29864998 301.8500278 1522.30096984 C295.78202225 1522.30147203 289.71401818 1522.30378118 283.64601326 1522.30646706 C263.43038707 1522.31522696 243.21476609 1522.31989363 222.99913799 1522.31913658 C221.9200441 1522.31909663 220.8409502 1522.31905667 219.72915649 1522.3190155 C218.6486756 1522.31897462 217.56819471 1522.31893374 216.45497198 1522.31889162 C198.98894453 1522.31848612 181.52293874 1522.32804387 164.05691754 1522.34215387 C145.92389729 1522.35668183 127.79088748 1522.36341525 109.65786129 1522.36256009 C99.55748095 1522.36223378 89.45712355 1522.36478091 79.35674858 1522.37573814 C20.91427979 1522.43610522 -37.37428885 1521.48696325 -95.7582497 1518.68261796 C-105.19876454 1518.23078992 -114.63662606 1517.9240616 -124.08474731 1517.6872406 C-134.08627145 1517.43493694 -143.93547516 1517.04860581 -153.84725952 1515.64543152 C-156.87929555 1515.23027811 -159.88490879 1514.99998779 -162.94100952 1514.84074402 C-182.51327269 1513.75842262 -201.59668298 1510.05604073 -220.82792664 1506.41558838 C-224.68290563 1505.69352652 -228.51448866 1505.0385776 -232.41073608 1504.58268738 C-235.7002033 1504.16618158 -237.92863614 1503.38246869 -240.95663452 1502.13371277 C-243.7089425 1501.48653108 -246.48470812 1500.99642284 -249.26913452 1500.50871277 C-250.37998413 1500.30761902 -250.37998413 1500.30761902 -251.51327515 1500.10246277 C-253.32688496 1499.77484293 -255.14164976 1499.45362783 -256.95663452 1499.13371277 C-256.95663452 1498.47371277 -256.95663452 1497.81371277 -256.95663452 1497.13371277 C-257.86413452 1497.03058777 -258.77163452 1496.92746277 -259.70663452 1496.82121277 C-268.34126856 1495.58020261 -276.75805682 1493.06177623 -284.95663452 1490.13371277 C-285.7378064 1489.85914246 -286.51897827 1489.58457214 -287.32382202 1489.30168152 C-294.03841445 1486.90361279 -300.67538271 1484.31249586 -307.31259155 1481.70988464 C-312.40486228 1479.71814539 -317.5194364 1477.82241809 -322.69491577 1476.05558777 C-325.29654042 1474.99516736 -327.55330821 1473.58399589 -329.95663452 1472.13371277 C-331.46291657 1471.49413027 -332.98465447 1470.8898272 -334.51913452 1470.32121277 C-340.53326 1467.98994543 -346.22796054 1465.0866375 -351.95663452 1462.13371277 C-351.95663452 1461.47371277 -351.95663452 1460.81371277 -351.95663452 1460.13371277 C-356.41163452 1458.64871277 -356.41163452 1458.64871277 -360.95663452 1457.13371277 C-360.95663452 1456.47371277 -360.95663452 1455.81371277 -360.95663452 1455.13371277 C-363.26663452 1454.47371277 -365.57663452 1453.81371277 -367.95663452 1453.13371277 C-367.95663452 1452.47371277 -367.95663452 1451.81371277 -367.95663452 1451.13371277 C-369.05104858 1450.72862488 -369.05104858 1450.72862488 -370.16757202 1450.31535339 C-372.88043914 1449.16599443 -375.13201738 1447.85576179 -377.58163452 1446.22746277 C-378.44675659 1445.65342712 -379.31187866 1445.07939148 -380.20321655 1444.48796082 C-381.11184448 1443.87605896 -382.02047241 1443.2641571 -382.95663452 1442.63371277 C-383.89491089 1442.00440857 -384.83318726 1441.37510437 -385.79989624 1440.72673035 C-396.19538933 1433.70006421 -405.9545954 1426.04968804 -415.61679077 1418.04386902 C-417.12537692 1416.81231873 -418.67400316 1415.62754911 -420.26522827 1414.50480652 C-420.82339233 1414.05234558 -421.3815564 1413.59988464 -421.95663452 1413.13371277 C-421.95663452 1412.47371277 -421.95663452 1411.81371277 -421.95663452 1411.13371277 C-422.54219116 1410.86961609 -423.1277478 1410.60551941 -423.73104858 1410.3334198 C-426.04419855 1409.08651119 -427.66238341 1407.74207832 -429.56600952 1405.93840027 C-430.56869873 1404.99396057 -430.56869873 1404.99396057 -431.59164429 1404.03044128 C-432.28959106 1403.36327087 -432.98753784 1402.69610046 -433.70663452 1402.00871277 C-434.42456177 1401.3280072 -435.14248901 1400.64730164 -435.88217163 1399.94596863 C-442.56237115 1393.59518697 -449.11670923 1387.24099595 -455.12460327 1380.24308777 C-457.1097504 1377.95741731 -459.15703282 1375.73669899 -461.20663452 1373.50871277 C-466.7918436 1367.30818404 -471.90460938 1360.770412 -476.95663452 1354.13371277 C-477.41328491 1353.53397644 -477.8699353 1352.93424011 -478.34042358 1352.31632996 C-493.10242096 1332.81202781 -505.38485063 1312.00882707 -516.04501343 1290.01017761 C-516.90486978 1288.24026439 -517.77988916 1286.47774079 -518.65585327 1284.71574402 C-541.57067993 1237.44389881 -553.82156618 1185.03455266 -560.20663452 1133.13371277 C-560.3577771 1131.90918396 -560.50891968 1130.68465515 -560.66464233 1129.42301941 C-563.2839846 1106.85853875 -564.40498085 1084.16977397 -565.42636108 1061.4874115 C-565.54946589 1058.77886278 -565.67714595 1056.07053781 -565.80478859 1053.36219978 C-568.79587662 989.79227608 -569.11355013 926.22279049 -569.09193442 862.59669824 C-569.08961803 855.58773443 -569.08937813 848.57877305 -569.09045029 841.56980896 C-569.09060352 840.55646956 -569.09075675 839.54313017 -569.09091463 838.49908352 C-569.09123448 836.4379708 -569.0915587 834.37685807 -569.09188722 832.31574535 C-569.09470963 813.18344404 -569.09150602 794.0511476 -569.08608685 774.91884708 C-569.08161631 758.63320744 -569.08240319 742.34757494 -569.08700562 726.06193542 C-569.09239994 706.96633316 -569.0944409 687.8707351 -569.09139335 668.77513218 C-569.09107493 666.72578494 -569.09076056 664.6764377 -569.09045029 662.62709045 C-569.09029601 661.61978652 -569.09014174 660.61248258 -569.08998279 659.57465428 C-569.08913249 652.5998834 -569.09056713 645.6251153 -569.09292984 638.65034485 C-569.10897175 586.70561018 -568.93219168 534.80757414 -566.67740631 482.90166092 C-566.57850663 480.62418318 -566.48098527 478.34664896 -566.38357544 476.06910706 C-564.83136203 439.95316387 -562.81485684 404.12107162 -557.29910278 368.36296082 C-556.95693218 366.13565035 -556.62240209 363.90729585 -556.28915405 361.67863464 C-551.31028923 328.63395988 -543.78898579 294.9305317 -530.28866577 264.22746277 C-529.19143425 261.67905407 -528.16074479 259.12530769 -527.15585327 256.53996277 C-523.22773197 246.44642844 -519.01000941 236.67154082 -513.97323608 227.08146667 C-512.95619146 225.13286388 -511.96636234 223.17225257 -510.98007202 221.20793152 C-498.70845335 197.06206087 -483.34294871 174.83940649 -465.95663452 154.13371277 C-465.5457962 153.64029388 -465.13495789 153.146875 -464.71166992 152.63850403 C-457.54796337 144.05144058 -450.05625412 135.91406131 -442.1199646 128.03630066 C-440.38408721 126.311228 -438.65928362 124.57559286 -436.93515015 122.83879089 C-430.24843741 116.14405823 -423.3774545 110.01426215 -415.95663452 104.13371277 C-414.77342447 103.13965794 -413.59538299 102.13937802 -412.42538452 101.12980652 C-397.04582815 87.87505728 -380.10777364 76.93842956 -362.8477478 66.31095886 C-361.54162525 65.49787818 -360.24353363 64.67180406 -358.95223999 63.83537292 C-354.74526827 61.12749524 -350.60023266 59.04239894 -345.95663452 57.13371277 C-343.43613446 55.90278674 -340.95002739 54.60598932 -338.45663452 53.32121277 C-330.78524572 49.42959141 -322.99410546 46.19560646 -314.95663452 43.13371277 C-313.78616577 42.67996277 -312.61569702 42.22621277 -311.40975952 41.75871277 C-306.30841245 39.78399777 -301.20234045 37.81920658 -296.07235718 35.91984558 C-294.61739901 35.37923107 -293.16496037 34.8318024 -291.71469116 34.2787323 C-284.42449372 31.54797948 -277.0207348 29.2966581 -269.54135132 27.15153503 C-267.52414309 26.57265009 -265.508855 25.98742932 -263.4937439 25.40129089 C-243.3285593 19.56194279 -243.3285593 19.56194279 -233.76913452 18.00871277 C-230.56014759 17.69716768 -230.56014759 17.69716768 -227.95663452 16.13371277 C-226.27099771 15.79926252 -224.57415459 15.52099283 -222.87460327 15.26652527 C-221.80669556 15.10450623 -220.73878784 14.94248718 -219.63851929 14.77555847 C-218.48537231 14.60499939 -217.33222534 14.43444031 -216.14413452 14.25871277 C-214.97100708 14.08235291 -213.79787964 13.90599304 -212.58920288 13.72428894 C-210.1901059 13.36391097 -207.79077152 13.00510996 -205.39120483 12.64787292 C-202.31516505 12.18738531 -199.24104117 11.71647193 -196.16757202 11.23918152 C-188.44086256 10.04539202 -180.76080301 8.86935289 -172.95272827 8.34465027 C-170.74987414 8.18411464 -170.74987414 8.18411464 -167.95663452 7.13371277 C-165.69572005 6.92586236 -163.43022736 6.76650811 -161.16366577 6.63371277 C-160.16637703 6.57280457 -160.16637703 6.57280457 -159.14894104 6.51066589 C-157.02254843 6.38118526 -154.89589355 6.25701711 -152.76913452 6.13371277 C-150.66026684 6.00990354 -148.55149864 5.88484824 -146.44288635 5.75675964 C-144.5164081 5.63994281 -142.58967602 5.52733414 -140.66293335 5.41496277 C-138.07214021 5.21836217 -135.55639787 4.96555017 -132.98764038 4.62004089 C-128.9979851 4.09977555 -125.02357073 3.93231663 -121.00350952 3.85246277 C-120.26320496 3.83405334 -119.52290039 3.81564392 -118.76016235 3.79667664 C-116.40905838 3.7385851 -114.05788139 3.68567134 -111.70663452 3.63371277 C-102.15682 3.41676369 -92.62082001 3.14429885 -83.08163452 2.63371277 C-71.91960314 2.03951967 -60.7567125 1.80391897 -49.5821228 1.58146667 C-46.98293639 1.52869869 -44.38385688 1.4719269 -41.78475952 1.41496277 C-41.03325623 1.40138733 -40.28175293 1.38781189 -39.50747681 1.37382507 C-34.53328335 1.26369729 -29.58847553 0.97693797 -24.62500572 0.630229 C-16.41499374 0.09408606 -8.22686515 -0.00967989 0 0 Z M-25.96058106 137.9015829 C-29.03805817 138.2594763 -32.11030333 138.32649205 -35.2059021 138.39909363 C-36.18803413 138.42382673 -36.18803413 138.42382673 -37.19000721 138.44905949 C-38.59552015 138.48401566 -40.00107576 138.51729107 -41.4066658 138.54899597 C-43.66042875 138.59989491 -45.91403865 138.65541494 -48.16766357 138.71208191 C-51.37775351 138.7925479 -54.58787626 138.87142662 -57.79803467 138.94911194 C-134.89716582 140.03069095 -134.89716582 140.03069095 -210.58163452 153.23918152 C-214.02248478 154.15116613 -217.46646065 154.87395705 -220.95663452 155.57121277 C-232.35377122 157.96513189 -243.19293681 161.73750745 -253.95663452 166.13371277 C-254.881698 166.50617126 -255.80676147 166.87862976 -256.75985718 167.26237488 C-269.17797813 172.27170794 -281.42002695 177.29469885 -292.95663452 184.13371277 C-293.68656616 184.56377625 -294.4164978 184.99383972 -295.16854858 185.43693542 C-306.90252118 192.42144292 -317.65726635 200.17277731 -327.95663452 209.13371277 C-328.48273315 209.59068542 -329.00883179 210.04765808 -329.5508728 210.51847839 C-342.29741179 221.69602151 -354.60731767 233.68744126 -364.95663452 247.13371277 C-365.74038452 248.10050964 -366.52413452 249.06730652 -367.33163452 250.06340027 C-392.03181133 280.77829362 -408.49969689 320.99039468 -416.21444702 359.47746277 C-416.73376465 362.03578542 -417.28472583 364.56428815 -417.88632202 367.10246277 C-422.96202217 388.97199098 -425.05862869 411.62748065 -426.48861694 433.99821472 C-426.78766961 438.61662043 -427.10505516 443.23302655 -427.44223022 447.84880066 C-428.73627805 465.84717955 -429.4845827 483.82316423 -429.96279907 501.85972595 C-430.03568811 504.5593052 -430.114014 507.25871223 -430.19269961 509.9581278 C-430.40110469 517.13677482 -430.58958414 524.31568653 -430.76635283 531.49516851 C-430.86891309 535.64854896 -430.97372361 539.80183069 -431.08568001 543.95496941 C-432.10951772 582.28274592 -432.10587432 620.60525172 -432.09193442 658.9432929 C-432.08961989 665.48710346 -432.0893774 672.03091143 -432.09045029 678.57472229 C-432.09060352 679.52022715 -432.09075675 680.46573201 -432.09091463 681.43988854 C-432.09123449 683.36311968 -432.0915587 685.28635083 -432.09188722 687.20958197 C-432.0947133 705.08690809 -432.09150134 722.96422902 -432.08608685 740.84155428 C-432.08162735 756.03318133 -432.08239337 771.22480071 -432.08700562 786.41642761 C-432.0924131 804.23462423 -432.09443283 822.05281632 -432.09139335 839.87101364 C-432.09107495 841.78806813 -432.09076057 843.70512263 -432.09045029 845.62217712 C-432.09029601 846.56437662 -432.09014174 847.50657611 -432.08998279 848.47732711 C-432.08913549 854.97535932 -432.09056057 861.47338853 -432.09292984 867.97142029 C-432.11106393 922.5251952 -431.87667395 977.06012496 -429.73690796 1031.58068466 C-429.64097121 1034.02687052 -429.54696857 1036.47312669 -429.45297241 1038.91938782 C-428.47673625 1064.07906892 -427.06560353 1089.13883647 -424.18191528 1114.16294861 C-423.96929383 1116.02296872 -423.76755007 1117.88422299 -423.5664978 1119.74552917 C-415.49082896 1194.22114188 -385.22967783 1264.89167367 -326.93319702 1313.59074402 C-323.67892343 1316.20600459 -320.33388908 1318.67985946 -316.95663452 1321.13371277 C-316.04140015 1321.83238464 -315.12616577 1322.53105652 -314.18319702 1323.25090027 C-306.79586622 1328.81847802 -298.97034094 1333.53885823 -290.95663452 1338.13371277 C-289.24927124 1339.12177917 -289.24927124 1339.12177917 -287.50741577 1340.12980652 C-268.7867165 1350.54882952 -248.42883577 1357.97457236 -227.95663452 1364.13371277 C-227.06766479 1364.40135437 -226.17869507 1364.66899597 -225.26278687 1364.94474792 C-192.87316512 1374.41045452 -158.5421049 1378.11400605 -124.95663452 1380.13371277 C-123.49178062 1380.22534752 -122.02693685 1380.3171444 -120.56210327 1380.40910339 C-108.70005882 1381.14042121 -96.83088796 1381.64779698 -84.95663452 1382.13371277 C-83.92499105 1382.17618881 -82.89334758 1382.21866485 -81.83044219 1382.26242805 C-32.45650758 1384.27014032 16.88954221 1384.44796025 66.2977585 1384.43607425 C74.21151748 1384.43421982 82.12526825 1384.43609397 90.03902626 1384.44028282 C91.18491777 1384.44087801 92.33080929 1384.4414732 93.51142478 1384.44208642 C95.84279718 1384.44329876 98.17416957 1384.44451289 100.50554196 1384.4457288 C122.16176682 1384.45649865 143.81797596 1384.45449344 165.47420166 1384.44834395 C185.04759823 1384.44319139 204.62094479 1384.45440551 224.19433149 1384.47344217 C244.54833254 1384.49307799 264.90231025 1384.50103203 285.25632077 1384.49731892 C296.58058257 1384.49544421 307.9048016 1384.49759885 319.2290554 1384.51203346 C456.49074316 1386.95698163 456.49074316 1386.95698163 592.04336548 1369.13371277 C593.11473755 1368.8878241 594.18610962 1368.64193542 595.28994751 1368.38859558 C656.15349361 1354.11936592 711.41245247 1324.27326589 750.04336548 1274.13371277 C750.81551392 1273.19011902 751.58766235 1272.24652527 752.38320923 1271.27433777 C789.52310641 1225.04015296 803.63933399 1163.77593133 810.04336548 1106.13371277 C810.12498932 1105.40990417 810.20661316 1104.68609558 810.29071045 1103.94035339 C812.26657578 1085.92072661 812.83773112 1067.82470025 813.51309204 1049.72117615 C813.63575518 1046.46535742 813.76354106 1043.20974936 813.89151955 1039.95413589 C814.26730341 1030.39434209 814.62143264 1020.8338703 814.96552277 1011.27288818 C815.03738711 1009.29800272 815.11188175 1007.32321343 815.18661499 1005.34843445 C817.16466304 952.82398438 817.19953696 900.24051673 817.17866538 847.6867063 C817.17633601 841.65431814 817.17611424 835.62193278 817.17718124 829.5895443 C817.17733448 828.71298692 817.17748771 827.83642954 817.17764559 826.93330982 C817.17796548 825.14963808 817.1782897 823.36596634 817.17861818 821.58229461 C817.18143245 805.07162562 817.17825065 788.5609623 817.17281781 772.05029424 C817.16835115 758.0448131 817.16913261 744.03934025 817.17373657 730.03385925 C817.17915129 713.55559933 817.18116059 697.07734429 817.17812431 680.5990836 C817.17780594 678.82486705 817.17749156 677.0506505 817.17718124 675.27643394 C817.17702697 674.40468936 817.17687269 673.53294478 817.17671374 672.63478369 C817.17586917 666.6449928 817.177286 660.65520519 817.1796608 654.66541481 C817.19140946 622.05415029 817.13546104 589.4489674 816.5975647 556.84147644 C816.56844667 555.00101555 816.56844667 555.00101555 816.5387404 553.12337363 C816.27782032 536.4069247 816.27782032 536.4069247 815.25803375 519.72408104 C814.95802279 516.10389595 814.88285438 512.51212645 814.83242798 508.87980652 C814.80659668 507.37800541 814.78011576 505.87621537 814.75308228 504.37443542 C814.73318741 503.20597076 814.73318741 503.20597076 814.71289062 502.01390076 C813.89712406 457.26024232 812.4361871 411.77617459 802.6625061 367.94963074 C802.06371604 365.2262693 801.50928111 362.49737676 800.96524048 359.76261902 C793.32932514 322.453955 778.3429626 284.44276852 755.04336548 254.13371277 C754.06303345 252.85367371 754.06303345 252.85367371 753.06289673 251.54777527 C751.09574026 249.04117177 749.08177108 246.58273245 747.04336548 244.13371277 C746.40624634 243.36124207 746.40624634 243.36124207 745.7562561 242.57316589 C735.81448987 230.55610854 725.11409146 219.05047528 713.04336548 209.13371277 C712.55384399 208.71976257 712.06432251 208.30581238 711.55996704 207.87931824 C663.67396603 167.45005228 601.16701455 150.82890415 540.04336548 144.13371277 C539.31646515 144.05208893 538.58956482 143.97046509 537.84063721 143.8863678 C521.673603 142.09949295 505.46041797 141.36995143 489.21853638 140.66398621 C486.42559154 140.54133999 483.6328952 140.413506 480.84018898 140.2855587 C462.6692034 139.45385095 444.4957816 138.71754692 426.31292748 138.19864893 C424.82126018 138.1559697 423.32960782 138.11276399 421.8379724 138.06898451 C379.30860153 136.8280144 336.76796892 136.98501658 294.22508172 136.99841287 C286.70879951 137.00071681 279.19251957 137.00097423 271.67623711 136.999897 C270.59504637 136.99974377 269.51385564 136.99959054 268.39990155 136.99943266 C266.20205303 136.99911287 264.00420452 136.99878865 261.80635601 136.99846007 C241.37716915 136.99563316 220.94798684 136.99885078 200.51880073 137.00426044 C183.01713973 137.00875098 165.51548535 137.00792875 148.01382446 137.00334167 C127.58300033 136.99798924 107.15218011 136.99588157 86.72135538 136.99895394 C84.54479659 136.99927244 82.36823779 136.99958681 80.191679 136.999897 C78.58602827 137.00012842 78.58602827 137.00012842 76.94794016 137.0003645 C69.42694777 137.00122579 61.90595789 136.99977568 54.3849659 136.99741745 C45.24247562 136.99461295 36.09999393 136.99537254 26.95750464 137.00069819 C22.29983255 137.00332252 17.64217477 137.00436138 12.98450279 137.00104904 C8.71946623 136.99806156 4.45445722 136.99971955 0.18942314 137.00502659 C-1.34965655 137.00614 -2.88873858 137.00558358 -4.42781674 137.00315081 C-11.64212613 136.9926244 -18.78756186 137.03639516 -25.96058106 137.9015829 Z " fill="#FEFEFE" transform="translate(831.9566345214844,262.8662872314453)"/>
<path d="M0 0 C0.9399884 -0.00960754 1.87997681 -0.01921509 2.84844971 -0.02911377 C4.36544464 -0.03548859 4.36544464 -0.03548859 5.91308594 -0.04199219 C6.97871765 -0.04769226 8.04434937 -0.05339233 9.14227295 -0.05926514 C11.40847791 -0.0687123 13.67469659 -0.07524799 15.94091797 -0.07910156 C19.31602283 -0.0886371 22.6904722 -0.11958886 26.06542969 -0.15136719 C40.39872644 -0.22023083 54.29012733 0.8210103 68.48207092 2.80323792 C71.79208768 3.24768998 75.10712113 3.60944922 78.4291687 3.9506073 C84.81234155 4.61232971 90.93364396 5.68638774 97.13183594 7.37988281 C100.57391357 8.27161277 104.02898473 8.93731633 107.52246094 9.59863281 C114.87419409 11.0420555 121.98289334 12.98335676 129.14746094 15.16113281 C130.29730469 15.49628906 131.44714844 15.83144531 132.63183594 16.17675781 C162.42213146 25.10127672 191.41212762 37.22601153 218.14746094 53.16113281 C218.98325684 53.65581055 219.81905273 54.15048828 220.68017578 54.66015625 C232.06137155 61.43343701 242.92476084 68.61754211 253.36132812 76.77197266 C255.07203272 78.10246871 256.7971541 79.41080544 258.53027344 80.71191406 C277.3214926 94.86287549 295.77906221 110.87179158 311.08886719 128.76269531 C312.72591048 130.66999053 314.38057691 132.55568881 316.04980469 134.43457031 C329.54634459 149.69313005 341.10872161 166.05370266 352.14746094 183.16113281 C352.56592285 183.80840332 352.98438477 184.45567383 353.41552734 185.12255859 C374.71494825 218.42425397 390.19603036 255.9811002 400.14746094 294.16113281 C400.33646973 294.88139648 400.52547852 295.60166016 400.72021484 296.34375 C408.54301469 326.60321607 411.335287 357.22804325 411.33276367 388.39111328 C411.33494849 391.39402498 411.35318911 394.39656684 411.37207031 397.39941406 C411.63859367 487.01857902 377.29562946 575.4165856 294.6000061 669.88381958 C293.19019471 671.30553811 291.78436415 672.7312007 290.37866211 674.15698242 C284.27928305 680.26399456 277.89275431 685.78364644 271.14746094 691.16113281 C270.12000189 692.02462935 269.0965933 692.89302295 268.08105469 693.77050781 C245.99334914 712.71270286 220.95002082 727.87372301 195.14746094 741.16113281 C194.34308594 741.5770166 193.53871094 741.99290039 192.70996094 742.42138672 C170.63060013 753.70208754 146.96601555 761.76540534 123.11035156 768.34277344 C120.51734628 769.05896936 117.93401176 769.80201466 115.35058594 770.55175781 C104.03482972 773.71435721 92.48331842 775.55289858 80.89746094 777.41113281 C80.08989349 777.5422345 79.28232605 777.67333618 78.45028687 777.80841064 C60.26055775 780.73498341 42.33230292 781.34775721 23.93212891 781.34643555 C20.54934978 781.34861548 17.16690124 781.36682096 13.78417969 781.38574219 C-38.43859642 781.52212329 -91.41833979 770.26525526 -138.85253906 748.16113281 C-139.79532715 747.72865234 -140.73811523 747.29617188 -141.70947266 746.85058594 C-162.03476771 737.49189963 -181.50345448 726.99103579 -199.85253906 714.16113281 C-200.43551758 713.75685059 -201.01849609 713.35256836 -201.61914062 712.93603516 C-213.48968322 704.68551754 -224.84209736 695.85136396 -235.79003906 686.41113281 C-236.39259521 685.89252686 -236.99515137 685.3739209 -237.6159668 684.83959961 C-241.30574812 681.62272313 -244.80392833 678.2703369 -248.22167969 674.765625 C-249.88335632 673.1308138 -251.61679762 671.6432056 -253.41503906 670.16113281 C-305.58930158 625.05108379 -339.3338895 556.27509418 -357.85253906 491.16113281 C-358.08424805 490.36030273 -358.31595703 489.55947266 -358.5546875 488.734375 C-361.70088674 477.70650776 -363.7503349 466.53827982 -365.54003906 455.22363281 C-365.84385498 453.31529663 -365.84385498 453.31529663 -366.15380859 451.3684082 C-369.28711343 430.71185436 -370.25896673 410.29972324 -370.22753906 389.41113281 C-370.22732758 388.11220093 -370.22711609 386.81326904 -370.22689819 385.47497559 C-370.19434362 365.41827063 -369.49286721 345.91322911 -365.85253906 326.16113281 C-365.65998535 325.1136084 -365.46743164 324.06608398 -365.26904297 322.98681641 C-364.17603064 317.2569481 -362.91985892 311.58221923 -361.52783203 305.91796875 C-360.82237072 303.03797266 -360.15090726 300.15125588 -359.48144531 297.26269531 C-347.27098293 245.50460135 -323.59671373 196.07832095 -290.85253906 154.16113281 C-289.97187126 153.01304762 -289.09168836 151.86459035 -288.21191406 150.71582031 C-283.17032122 144.17300436 -277.97276033 137.90040459 -272.33691406 131.85644531 C-270.3833369 129.73699839 -268.49383281 127.59092592 -266.61425781 125.40722656 C-262.57454049 120.77423359 -258.27108889 116.43262669 -253.91503906 112.09863281 C-253.15513672 111.33486328 -252.39523437 110.57109375 -251.61230469 109.78417969 C-246.85570441 105.0357034 -241.95978937 100.52828151 -236.85253906 96.16113281 C-235.88832031 95.31550781 -234.92410156 94.46988281 -233.93066406 93.59863281 C-219.74660147 81.37369489 -204.70321551 70.23521156 -188.79052734 60.36376953 C-186.98991822 59.24638473 -185.20026752 58.1131606 -183.41113281 56.97753906 C-166.20944599 46.21970569 -147.68581875 36.7068486 -128.85253906 29.16113281 C-127.70914063 28.7009375 -126.56574219 28.24074219 -125.38769531 27.76660156 C-121.23305297 26.15706563 -117.05512441 24.64021133 -112.85253906 23.16113281 C-111.78696777 22.78553223 -110.72139648 22.40993164 -109.62353516 22.02294922 C-88.71682142 14.71488811 -67.58020122 7.80563403 -45.45019531 5.48535156 C-42.87297064 5.31009637 -42.87297064 5.31009637 -40.85253906 4.16113281 C-32.48926458 2.58918107 -24.11524838 1.87857885 -15.62768555 1.50292969 C-12.84315256 1.37358534 -10.15680156 1.22443195 -7.42364502 0.65582275 C-4.88588506 0.1675487 -2.58078523 0.02150284 0 0 Z " fill="#FEFEFE" transform="translate(1003.8525390625,632.8388671875)"/>
<path d="M0 0 C1.0199707 0.38091797 1.0199707 0.38091797 2.06054688 0.76953125 C12.06064146 4.50583033 21.56213842 9.0388198 31 14 C31.71559082 14.37108887 32.43118164 14.74217773 33.16845703 15.12451172 C50.27440857 24.04590593 65.61728798 35.17254341 80 48 C80.80147461 48.70890381 80.80147461 48.70890381 81.61914062 49.43212891 C122.31953619 85.58209472 149.9207704 134.56993871 160.8125 187.8125 C161.00755127 188.76503662 161.20260254 189.71757324 161.40356445 190.69897461 C164.32007625 205.89133798 165.35655836 220.99334782 165.25 236.4375 C165.24689819 237.2456012 165.24379639 238.05370239 165.24060059 238.8862915 C165.19108933 249.91125111 165.04860044 260.85393677 163.34619141 271.76953125 C163.10041676 273.35302714 162.87277649 274.93938503 162.65771484 276.52734375 C155.05669554 332.6141154 124.77641711 390.41866874 81 427 C79.99536472 427.8870278 78.99295179 428.77657591 77.9921875 429.66796875 C52.64235508 452.09964859 22.44763896 468.94815591 -9.76855469 479.27539062 C-11.80929377 479.93807264 -13.83042313 480.63957497 -15.8515625 481.359375 C-34.68388496 487.78218813 -55.13700196 491.06359616 -75.01953125 491.23828125 C-75.94814972 491.2480751 -76.87676819 491.25786896 -77.83352661 491.26795959 C-145.75142229 491.83637678 -207.71695245 472.65153318 -258.5390625 426.23828125 C-260.16422249 424.76015954 -261.80473906 423.29872739 -263.4609375 421.85546875 C-287.30426107 400.98315868 -305.65900503 373.5673643 -319 345 C-319.2985791 344.3694873 -319.5971582 343.73897461 -319.90478516 343.08935547 C-325.2487148 331.72294817 -329.27989465 319.98565354 -333 308 C-333.391875 306.74832031 -333.78375 305.49664063 -334.1875 304.20703125 C-339.22370152 286.79672521 -342.06705257 267.86947305 -342.23828125 249.734375 C-342.24802979 248.87092972 -342.25777832 248.00748444 -342.26782227 247.11787415 C-342.51342685 219.6843025 -340.87411846 193.46744291 -333 167 C-332.75942871 166.17693359 -332.51885742 165.35386719 -332.27099609 164.50585938 C-323.93928044 136.49414914 -310.4789343 110.35889148 -293 87 C-292.5344873 86.37609375 -292.06897461 85.7521875 -291.58935547 85.109375 C-284.91907587 76.23778465 -277.68573495 68.00158707 -270 60 C-269.1440625 59.1028125 -268.288125 58.205625 -267.40625 57.28125 C-261.63307617 51.36191987 -255.47237066 46.1348721 -249 41 C-247.81664062 40.01580078 -247.81664062 40.01580078 -246.609375 39.01171875 C-222.41426888 19.02271551 -193.66229857 4.79055311 -164 -5 C-163.26313965 -5.24588867 -162.5262793 -5.49177734 -161.76708984 -5.74511719 C-110.10476131 -22.59335738 -50.43050717 -19.32507624 0 0 Z " fill="#FE0C63" transform="translate(1113,786)"/>
<path d="M0 0 C1.84416504 0.0163147 1.84416504 0.0163147 3.72558594 0.03295898 C28.89264892 0.47439873 49.92119811 9.94333896 67.70214844 27.87890625 C86.77561542 47.93419205 92.63806646 71.56239254 92.3359375 98.61328125 C92.17232126 104.92866619 91.28600464 110.43223724 89.125 116.375 C88.52171875 118.24285156 88.52171875 118.24285156 87.90625 120.1484375 C83.18580961 134.23692806 75.64936641 145.83273501 65.125 156.375 C64.36703125 157.14457031 63.6090625 157.91414062 62.828125 158.70703125 C45.12676226 175.68529911 21.45039073 182.94573528 -2.65673828 182.79467773 C-26.4427563 182.15331727 -46.23069723 171.7928168 -63.875 156.375 C-84.50955246 133.95980088 -90.88017878 109.42099879 -90.04541016 79.59960938 C-88.84621763 56.90772558 -74.71870463 36.3396937 -58.625 21.25 C-41.92125717 6.89115001 -21.85127689 -0.26386789 0 0 Z " fill="#FEFEFE" transform="translate(1429.875,526.625)"/>
</svg>
